<mxfile host="65bd71144e">
    <diagram id="yc4NlI7xFQW_PodMDBUe" name="Page-1">
        <mxGraphModel dx="1980" dy="1113" grid="0" gridSize="10" guides="1" tooltips="1" connect="1" arrows="1" fold="1" page="1" pageScale="1" pageWidth="4681" pageHeight="3300" background="#ffffff" math="0" shadow="0">
            <root>
                <mxCell id="0"/>
                <mxCell id="1" parent="0"/>
                <mxCell id="211" value="" style="rounded=0;whiteSpace=wrap;html=1;fillColor=none;strokeColor=#000000;strokeWidth=2;rotation=90;fontStyle=1" parent="1" vertex="1">
                    <mxGeometry x="1543.37" y="1482.38" width="1637.75" height="1203" as="geometry"/>
                </mxCell>
                <mxCell id="4" value="User" style="shape=umlActor;verticalLabelPosition=bottom;verticalAlign=top;html=1;outlineConnect=0;strokeColor=#000000;fillColor=none;fontColor=#000000;strokeWidth=2;fontSize=20;" parent="1" vertex="1">
                    <mxGeometry x="1615" y="2213" width="87" height="153" as="geometry"/>
                </mxCell>
                <mxCell id="6" value="Moderator" style="shape=umlActor;verticalLabelPosition=bottom;verticalAlign=top;html=1;outlineConnect=0;strokeColor=#000000;fillColor=none;fontColor=#000000;strokeWidth=2;fontSize=20;" parent="1" vertex="1">
                    <mxGeometry x="3020" y="2150" width="87" height="153" as="geometry"/>
                </mxCell>
                <mxCell id="7" value="Guest" style="shape=umlActor;verticalLabelPosition=bottom;verticalAlign=top;html=1;outlineConnect=0;strokeColor=#000000;fillColor=none;fontColor=#000000;strokeWidth=2;fontSize=20;" parent="1" vertex="1">
                    <mxGeometry x="1631" y="1429" width="90" height="153" as="geometry"/>
                </mxCell>
                <mxCell id="9" value="Admin" style="shape=umlActor;verticalLabelPosition=bottom;verticalAlign=top;html=1;outlineConnect=0;strokeColor=#000000;fillColor=none;fontColor=#000000;strokeWidth=2;fontSize=20;" parent="1" vertex="1">
                    <mxGeometry x="3020" y="1590" width="87" height="153" as="geometry"/>
                </mxCell>
                <mxCell id="15" value="Sign in" style="ellipse;whiteSpace=wrap;html=1;fillColor=#FFFFFF;strokeColor=#000000;fontColor=#000000;strokeWidth=2;fontSize=20;" parent="1" vertex="1">
                    <mxGeometry x="1964" y="1310" width="146" height="76" as="geometry"/>
                </mxCell>
                <mxCell id="17" value="View Stuff" style="ellipse;whiteSpace=wrap;html=1;fillColor=#FFFFFF;strokeColor=#000000;fontColor=#000000;strokeWidth=2;fontSize=20;" parent="1" vertex="1">
                    <mxGeometry x="1953" y="1451" width="139" height="70" as="geometry"/>
                </mxCell>
                <mxCell id="18" value="Search Stuff" style="ellipse;whiteSpace=wrap;html=1;fillColor=#FFFFFF;strokeColor=#000000;fontColor=#000000;strokeWidth=2;fontSize=20;" parent="1" vertex="1">
                    <mxGeometry x="1959" y="1590" width="148" height="84" as="geometry"/>
                </mxCell>
                <mxCell id="23" value="Sign in via Google" style="ellipse;whiteSpace=wrap;html=1;fillColor=#FFFFFF;strokeColor=#000000;fontColor=#000000;strokeWidth=2;fontSize=20;" parent="1" vertex="1">
                    <mxGeometry x="2250" y="1292" width="154" height="76" as="geometry"/>
                </mxCell>
                <mxCell id="24" value="Create Stuff" style="ellipse;whiteSpace=wrap;html=1;fillColor=#FFFFFF;strokeColor=#000000;fontColor=#000000;strokeWidth=2;fontSize=20;" parent="1" vertex="1">
                    <mxGeometry x="1928" y="1813" width="135" height="79" as="geometry"/>
                </mxCell>
                <mxCell id="25" value="Request" style="ellipse;whiteSpace=wrap;html=1;fillColor=#FFFFFF;strokeColor=#000000;fontColor=#000000;strokeWidth=2;fontSize=20;" parent="1" vertex="1">
                    <mxGeometry x="2735" y="1718" width="135" height="79" as="geometry"/>
                </mxCell>
                <mxCell id="26" value="Account" style="ellipse;whiteSpace=wrap;html=1;fillColor=#FFFFFF;strokeColor=#000000;fontColor=#000000;strokeWidth=2;fontSize=20;" parent="1" vertex="1">
                    <mxGeometry x="2735" y="1587" width="135" height="79" as="geometry"/>
                </mxCell>
                <mxCell id="27" value="Market" style="ellipse;whiteSpace=wrap;html=1;fillColor=#FFFFFF;strokeColor=#000000;fontColor=#000000;strokeWidth=2;fontSize=20;" parent="1" vertex="1">
                    <mxGeometry x="1937" y="2033" width="164" height="99" as="geometry"/>
                </mxCell>
                <mxCell id="28" value="Exchange" style="ellipse;whiteSpace=wrap;html=1;fillColor=#FFFFFF;strokeColor=#000000;fontColor=#000000;strokeWidth=2;fontSize=20;" parent="1" vertex="1">
                    <mxGeometry x="1936" y="2174" width="162" height="99" as="geometry"/>
                </mxCell>
                <mxCell id="29" value="Manage Stuff" style="ellipse;whiteSpace=wrap;html=1;fillColor=#FFFFFF;strokeColor=#000000;fontColor=#000000;strokeWidth=2;fontSize=20;" parent="1" vertex="1">
                    <mxGeometry x="1845" y="2403" width="155" height="103" as="geometry"/>
                </mxCell>
                <mxCell id="32" value="" style="endArrow=classic;html=1;strokeColor=#000000;strokeWidth=2;fontSize=20;fontColor=#000000;exitX=0.5;exitY=0;exitDx=0;exitDy=0;exitPerimeter=0;" parent="1" source="4" target="7" edge="1">
                    <mxGeometry width="50" height="50" relative="1" as="geometry">
                        <mxPoint x="2127" y="1851" as="sourcePoint"/>
                        <mxPoint x="2177" y="1801" as="targetPoint"/>
                    </mxGeometry>
                </mxCell>
                <mxCell id="34" value="" style="endArrow=block;dashed=1;endFill=0;endSize=12;html=1;strokeColor=#000000;strokeWidth=2;fontSize=20;fontColor=#000000;entryX=1;entryY=0.5;entryDx=0;entryDy=0;exitX=0;exitY=0.5;exitDx=0;exitDy=0;" parent="1" source="36" target="17" edge="1">
                    <mxGeometry width="160" relative="1" as="geometry">
                        <mxPoint x="2265" y="1600" as="sourcePoint"/>
                        <mxPoint x="2473" y="1609" as="targetPoint"/>
                    </mxGeometry>
                </mxCell>
                <mxCell id="36" value="View Stuff Detail" style="ellipse;whiteSpace=wrap;html=1;fillColor=#FFFFFF;strokeColor=#000000;fontColor=#000000;strokeWidth=2;fontSize=20;" parent="1" vertex="1">
                    <mxGeometry x="2204" y="1415" width="135" height="79" as="geometry"/>
                </mxCell>
                <mxCell id="37" value="" style="endArrow=block;dashed=1;endFill=0;endSize=12;html=1;strokeColor=#000000;strokeWidth=2;fontSize=20;fontColor=#000000;entryX=1;entryY=0.5;entryDx=0;entryDy=0;exitX=0;exitY=0.5;exitDx=0;exitDy=0;" parent="1" source="23" target="15" edge="1">
                    <mxGeometry width="160" relative="1" as="geometry">
                        <mxPoint x="2251.9999999999964" y="1452" as="sourcePoint"/>
                        <mxPoint x="2128.999999999997" y="1465.5" as="targetPoint"/>
                        <Array as="points"/>
                    </mxGeometry>
                </mxCell>
                <mxCell id="40" value="&amp;lt;&amp;lt; Extend &amp;gt;&amp;gt;" style="text;html=1;strokeColor=none;fillColor=none;align=center;verticalAlign=middle;whiteSpace=wrap;rounded=0;strokeWidth=2;fontSize=20;fontColor=#000000;rotation=-15;" parent="1" vertex="1">
                    <mxGeometry x="2085" y="1424" width="144" height="30" as="geometry"/>
                </mxCell>
                <mxCell id="41" value="&amp;lt;&amp;lt; Extend &amp;gt;&amp;gt;" style="text;html=1;strokeColor=none;fillColor=none;align=center;verticalAlign=middle;whiteSpace=wrap;rounded=0;strokeWidth=2;fontSize=20;fontColor=#000000;rotation=-15;" parent="1" vertex="1">
                    <mxGeometry x="2107" y="1304" width="144" height="30" as="geometry"/>
                </mxCell>
                <mxCell id="42" value="" style="endArrow=block;dashed=1;endFill=0;endSize=12;html=1;strokeColor=#000000;strokeWidth=2;fontSize=20;fontColor=#000000;entryX=1;entryY=0.5;entryDx=0;entryDy=0;exitX=0;exitY=0.5;exitDx=0;exitDy=0;" parent="1" source="47" target="18" edge="1">
                    <mxGeometry width="160" relative="1" as="geometry">
                        <mxPoint x="2213" y="1637" as="sourcePoint"/>
                        <mxPoint x="2111.999999999997" y="1690.5" as="targetPoint"/>
                    </mxGeometry>
                </mxCell>
                <mxCell id="43" value="" style="endArrow=block;dashed=1;endFill=0;endSize=12;html=1;strokeColor=#000000;strokeWidth=2;fontSize=20;fontColor=#000000;exitX=1;exitY=0.5;exitDx=0;exitDy=0;entryX=0;entryY=0.5;entryDx=0;entryDy=0;" parent="1" source="62" target="61" edge="1">
                    <mxGeometry width="160" relative="1" as="geometry">
                        <mxPoint x="2478" y="2834.5" as="sourcePoint"/>
                        <mxPoint x="2543" y="2489" as="targetPoint"/>
                    </mxGeometry>
                </mxCell>
                <mxCell id="44" value="" style="endArrow=block;dashed=1;endFill=0;endSize=12;html=1;strokeColor=#000000;strokeWidth=2;fontSize=20;fontColor=#000000;exitX=1;exitY=0.5;exitDx=0;exitDy=0;entryX=0;entryY=0.5;entryDx=0;entryDy=0;" parent="1" source="24" target="123" edge="1">
                    <mxGeometry width="160" relative="1" as="geometry">
                        <mxPoint x="2210" y="1829" as="sourcePoint"/>
                        <mxPoint x="2069.999999999997" y="1850.5" as="targetPoint"/>
                    </mxGeometry>
                </mxCell>
                <mxCell id="46" value="Auction" style="ellipse;whiteSpace=wrap;html=1;fillColor=#FFFFFF;strokeColor=#000000;fontColor=#000000;strokeWidth=2;fontSize=20;" parent="1" vertex="1">
                    <mxGeometry x="1943" y="1925" width="155" height="86" as="geometry"/>
                </mxCell>
                <mxCell id="47" value="Filter" style="ellipse;whiteSpace=wrap;html=1;fillColor=#FFFFFF;strokeColor=#000000;fontColor=#000000;strokeWidth=2;fontSize=20;" parent="1" vertex="1">
                    <mxGeometry x="2233" y="1536" width="135" height="79" as="geometry"/>
                </mxCell>
                <mxCell id="48" value="&amp;lt;&amp;lt; Extend &amp;gt;&amp;gt;" style="text;html=1;strokeColor=none;fillColor=none;align=center;verticalAlign=middle;whiteSpace=wrap;rounded=0;strokeWidth=2;fontSize=20;fontColor=#000000;rotation=-30;" parent="1" vertex="1">
                    <mxGeometry x="2092" y="1569" width="144" height="30" as="geometry"/>
                </mxCell>
                <mxCell id="59" value="View/Edit" style="ellipse;whiteSpace=wrap;html=1;fillColor=#FFFFFF;strokeColor=#000000;fontColor=#000000;strokeWidth=2;fontSize=20;" parent="1" vertex="1">
                    <mxGeometry x="2242" y="1929" width="162" height="90" as="geometry"/>
                </mxCell>
                <mxCell id="61" value="Send Request" style="ellipse;whiteSpace=wrap;html=1;fillColor=#FFFFFF;strokeColor=#000000;fontColor=#000000;strokeWidth=2;fontSize=20;" parent="1" vertex="1">
                    <mxGeometry x="2750" y="2460" width="135" height="79" as="geometry"/>
                </mxCell>
                <mxCell id="62" value="Delete" style="ellipse;whiteSpace=wrap;html=1;fillColor=#FFFFFF;strokeColor=#000000;fontColor=#000000;strokeWidth=2;fontSize=20;" parent="1" vertex="1">
                    <mxGeometry x="2408" y="2449" width="135" height="79" as="geometry"/>
                </mxCell>
                <mxCell id="63" value="View History" style="ellipse;whiteSpace=wrap;html=1;fillColor=#FFFFFF;strokeColor=#000000;fontColor=#000000;strokeWidth=2;fontSize=20;" parent="1" vertex="1">
                    <mxGeometry x="2261" y="2252" width="135" height="79" as="geometry"/>
                </mxCell>
                <mxCell id="64" value="Edit Profile" style="ellipse;whiteSpace=wrap;html=1;fillColor=#FFFFFF;strokeColor=#000000;fontColor=#000000;strokeWidth=2;fontSize=20;" parent="1" vertex="1">
                    <mxGeometry x="2273" y="2346" width="135" height="79" as="geometry"/>
                </mxCell>
                <mxCell id="65" value="Profile" style="ellipse;whiteSpace=wrap;html=1;fillColor=#FFFFFF;strokeColor=#000000;fontColor=#000000;strokeWidth=2;fontSize=20;" parent="1" vertex="1">
                    <mxGeometry x="1941" y="2318" width="135" height="79" as="geometry"/>
                </mxCell>
                <mxCell id="68" value="View/Edit" style="ellipse;whiteSpace=wrap;html=1;fillColor=#FFFFFF;strokeColor=#000000;fontColor=#000000;strokeWidth=2;fontSize=20;" parent="1" vertex="1">
                    <mxGeometry x="2240" y="2037.5" width="162" height="90" as="geometry"/>
                </mxCell>
                <mxCell id="72" value="View/Edit" style="ellipse;whiteSpace=wrap;html=1;fillColor=#FFFFFF;strokeColor=#000000;fontColor=#000000;strokeWidth=2;fontSize=20;" parent="1" vertex="1">
                    <mxGeometry x="2240.0000000000005" y="2146" width="162" height="90" as="geometry"/>
                </mxCell>
                <mxCell id="76" value="View Own Stuff" style="ellipse;whiteSpace=wrap;html=1;fillColor=#FFFFFF;strokeColor=#000000;fontColor=#000000;strokeWidth=2;fontSize=20;" parent="1" vertex="1">
                    <mxGeometry x="2088" y="2576" width="156.86" height="75" as="geometry"/>
                </mxCell>
                <mxCell id="78" value="Edit Own Stuff" style="ellipse;whiteSpace=wrap;html=1;fillColor=#FFFFFF;strokeColor=#000000;fontColor=#000000;strokeWidth=2;fontSize=20;" parent="1" vertex="1">
                    <mxGeometry x="2141" y="2432.5" width="135" height="79" as="geometry"/>
                </mxCell>
                <mxCell id="84" value="Update" style="ellipse;whiteSpace=wrap;html=1;fillColor=#FFFFFF;strokeColor=#000000;fontColor=#000000;strokeWidth=2;fontSize=20;" parent="1" vertex="1">
                    <mxGeometry x="2365" y="2579" width="135" height="79" as="geometry"/>
                </mxCell>
                <mxCell id="92" value="&amp;lt;&amp;lt; Include &amp;gt;&amp;gt;" style="text;html=1;strokeColor=none;fillColor=none;align=center;verticalAlign=middle;whiteSpace=wrap;rounded=0;strokeWidth=2;fontSize=20;fontColor=#000000;rotation=0;" parent="1" vertex="1">
                    <mxGeometry x="2591" y="2460" width="139" height="34" as="geometry"/>
                </mxCell>
                <mxCell id="123" value="Send Request" style="ellipse;whiteSpace=wrap;html=1;fillColor=#FFFFFF;strokeColor=#000000;fontColor=#000000;strokeWidth=2;fontSize=20;" parent="1" vertex="1">
                    <mxGeometry x="2253.5" y="1797" width="135" height="79" as="geometry"/>
                </mxCell>
                <mxCell id="125" value="&amp;lt;&amp;lt; Include &amp;gt;&amp;gt;" style="text;html=1;strokeColor=none;fillColor=none;align=center;verticalAlign=middle;whiteSpace=wrap;rounded=0;strokeWidth=2;fontSize=20;fontColor=#000000;rotation=-5;" parent="1" vertex="1">
                    <mxGeometry x="2115" y="1808" width="144" height="30" as="geometry"/>
                </mxCell>
                <mxCell id="133" value="View/Edit" style="ellipse;whiteSpace=wrap;html=1;fillColor=#FFFFFF;strokeColor=#000000;fontColor=#000000;strokeWidth=2;fontSize=20;" parent="1" vertex="1">
                    <mxGeometry x="2459" y="1713" width="135" height="79" as="geometry"/>
                </mxCell>
                <mxCell id="138" value="View/Edit" style="ellipse;whiteSpace=wrap;html=1;fillColor=#FFFFFF;strokeColor=#000000;fontColor=#000000;strokeWidth=2;fontSize=20;" parent="1" vertex="1">
                    <mxGeometry x="2456" y="1592.5" width="135" height="79" as="geometry"/>
                </mxCell>
                <mxCell id="142" value="" style="endArrow=none;dashed=1;html=1;strokeColor=#000000;strokeWidth=2;fontSize=20;fontColor=#000000;" parent="1" target="143" edge="1">
                    <mxGeometry width="50" height="50" relative="1" as="geometry">
                        <mxPoint x="2098" y="1850" as="sourcePoint"/>
                        <mxPoint x="2158" y="1709" as="targetPoint"/>
                    </mxGeometry>
                </mxCell>
                <mxCell id="143" value="Condition: User create donate stuff" style="shape=note;whiteSpace=wrap;html=1;backgroundOutline=1;darkOpacity=0.05;strokeColor=#000000;strokeWidth=1;fontSize=20;fontColor=#000000;fillColor=#FFFFFF;" parent="1" vertex="1">
                    <mxGeometry x="2162" y="1668.5" width="183" height="100" as="geometry"/>
                </mxCell>
                <mxCell id="148" value="" style="endArrow=none;html=1;strokeColor=#000000;strokeWidth=2;entryX=0;entryY=0.5;entryDx=0;entryDy=0;" parent="1" target="24" edge="1">
                    <mxGeometry width="50" height="50" relative="1" as="geometry">
                        <mxPoint x="1688" y="2148" as="sourcePoint"/>
                        <mxPoint x="1918" y="1858" as="targetPoint"/>
                        <Array as="points"/>
                    </mxGeometry>
                </mxCell>
                <mxCell id="151" value="" style="endArrow=none;html=1;strokeColor=#000000;strokeWidth=2;entryX=0;entryY=0.5;entryDx=0;entryDy=0;" parent="1" target="15" edge="1">
                    <mxGeometry width="50" height="50" relative="1" as="geometry">
                        <mxPoint x="1756" y="1473" as="sourcePoint"/>
                        <mxPoint x="1956" y="1349" as="targetPoint"/>
                        <Array as="points"/>
                    </mxGeometry>
                </mxCell>
                <mxCell id="152" value="" style="endArrow=none;html=1;strokeColor=#000000;strokeWidth=2;exitX=1;exitY=0.5;exitDx=0;exitDy=0;" parent="1" source="26" edge="1">
                    <mxGeometry width="50" height="50" relative="1" as="geometry">
                        <mxPoint x="1550" y="1872" as="sourcePoint"/>
                        <mxPoint x="2998" y="1660" as="targetPoint"/>
                        <Array as="points"/>
                    </mxGeometry>
                </mxCell>
                <mxCell id="153" value="" style="endArrow=none;html=1;strokeColor=#000000;strokeWidth=2;entryX=0;entryY=0.5;entryDx=0;entryDy=0;" parent="1" target="46" edge="1">
                    <mxGeometry width="50" height="50" relative="1" as="geometry">
                        <mxPoint x="1714" y="2176" as="sourcePoint"/>
                        <mxPoint x="1574" y="2082" as="targetPoint"/>
                        <Array as="points"/>
                    </mxGeometry>
                </mxCell>
                <mxCell id="158" value="" style="endArrow=none;html=1;strokeColor=#000000;strokeWidth=2;entryX=0;entryY=0.5;entryDx=0;entryDy=0;" parent="1" target="28" edge="1">
                    <mxGeometry width="50" height="50" relative="1" as="geometry">
                        <mxPoint x="1748" y="2276" as="sourcePoint"/>
                        <mxPoint x="1450" y="2238" as="targetPoint"/>
                        <Array as="points"/>
                    </mxGeometry>
                </mxCell>
                <mxCell id="160" value="" style="endArrow=none;html=1;strokeColor=#000000;strokeWidth=2;exitX=0.5;exitY=1;exitDx=0;exitDy=0;" parent="1" source="25" edge="1">
                    <mxGeometry width="50" height="50" relative="1" as="geometry">
                        <mxPoint x="2805" y="1992" as="sourcePoint"/>
                        <mxPoint x="2993" y="2150" as="targetPoint"/>
                        <Array as="points"/>
                    </mxGeometry>
                </mxCell>
                <mxCell id="161" value="" style="endArrow=none;html=1;strokeColor=#000000;strokeWidth=2;entryX=0;entryY=0.5;entryDx=0;entryDy=0;" parent="1" target="29" edge="1">
                    <mxGeometry width="50" height="50" relative="1" as="geometry">
                        <mxPoint x="1724" y="2382" as="sourcePoint"/>
                        <mxPoint x="1678" y="2552" as="targetPoint"/>
                        <Array as="points"/>
                    </mxGeometry>
                </mxCell>
                <mxCell id="162" value="" style="endArrow=none;html=1;strokeColor=#000000;strokeWidth=2;entryX=0;entryY=0.5;entryDx=0;entryDy=0;" parent="1" target="27" edge="1">
                    <mxGeometry width="50" height="50" relative="1" as="geometry">
                        <mxPoint x="1730" y="2230" as="sourcePoint"/>
                        <mxPoint x="1354" y="2246" as="targetPoint"/>
                        <Array as="points"/>
                    </mxGeometry>
                </mxCell>
                <mxCell id="163" value="" style="endArrow=none;html=1;strokeColor=#000000;strokeWidth=2;entryX=0;entryY=0.5;entryDx=0;entryDy=0;" parent="1" target="65" edge="1">
                    <mxGeometry width="50" height="50" relative="1" as="geometry">
                        <mxPoint x="1744" y="2332" as="sourcePoint"/>
                        <mxPoint x="1874" y="2360" as="targetPoint"/>
                        <Array as="points"/>
                    </mxGeometry>
                </mxCell>
                <mxCell id="164" value="" style="endArrow=none;html=1;strokeColor=#000000;strokeWidth=2;entryX=0;entryY=0.5;entryDx=0;entryDy=0;" parent="1" target="17" edge="1">
                    <mxGeometry width="50" height="50" relative="1" as="geometry">
                        <mxPoint x="1760" y="1543" as="sourcePoint"/>
                        <mxPoint x="1959" y="1440" as="targetPoint"/>
                        <Array as="points"/>
                    </mxGeometry>
                </mxCell>
                <mxCell id="167" value="" style="endArrow=none;html=1;strokeColor=#000000;strokeWidth=2;entryX=0;entryY=0.5;entryDx=0;entryDy=0;" parent="1" target="18" edge="1">
                    <mxGeometry width="50" height="50" relative="1" as="geometry">
                        <mxPoint x="1765" y="1599" as="sourcePoint"/>
                        <mxPoint x="1928" y="1562" as="targetPoint"/>
                        <Array as="points"/>
                    </mxGeometry>
                </mxCell>
                <mxCell id="171" value="" style="endArrow=block;dashed=1;endFill=0;endSize=12;html=1;strokeColor=#000000;strokeWidth=2;fontSize=20;fontColor=#000000;entryX=1;entryY=0.5;entryDx=0;entryDy=0;exitX=0;exitY=0.5;exitDx=0;exitDy=0;" parent="1" source="72" target="28" edge="1">
                    <mxGeometry width="160" relative="1" as="geometry">
                        <mxPoint x="2233" y="2242.25" as="sourcePoint"/>
                        <mxPoint x="2112.0000000000027" y="2156" as="targetPoint"/>
                    </mxGeometry>
                </mxCell>
                <mxCell id="172" value="" style="endArrow=block;dashed=1;endFill=0;endSize=12;html=1;strokeColor=#000000;strokeWidth=2;fontSize=20;fontColor=#000000;entryX=1;entryY=0.5;entryDx=0;entryDy=0;exitX=0;exitY=0.5;exitDx=0;exitDy=0;" parent="1" source="68" target="27" edge="1">
                    <mxGeometry width="160" relative="1" as="geometry">
                        <mxPoint x="2229.000000000049" y="2047" as="sourcePoint"/>
                        <mxPoint x="2117.0000000000027" y="2078.5" as="targetPoint"/>
                    </mxGeometry>
                </mxCell>
                <mxCell id="173" value="" style="endArrow=block;dashed=1;endFill=0;endSize=12;html=1;strokeColor=#000000;strokeWidth=2;fontSize=20;fontColor=#000000;entryX=1;entryY=0.5;entryDx=0;entryDy=0;exitX=0;exitY=0.5;exitDx=0;exitDy=0;" parent="1" source="59" target="46" edge="1">
                    <mxGeometry width="160" relative="1" as="geometry">
                        <mxPoint x="2219.000000000049" y="1941" as="sourcePoint"/>
                        <mxPoint x="2107.0000000000027" y="1972.5" as="targetPoint"/>
                    </mxGeometry>
                </mxCell>
                <mxCell id="178" value="" style="endArrow=block;dashed=1;endFill=0;endSize=12;html=1;strokeColor=#000000;strokeWidth=2;fontSize=20;fontColor=#000000;entryX=1;entryY=1;entryDx=0;entryDy=0;exitX=0;exitY=0;exitDx=0;exitDy=0;" parent="1" source="84" target="78" edge="1">
                    <mxGeometry width="160" relative="1" as="geometry">
                        <mxPoint x="2457.0000000000487" y="2695" as="sourcePoint"/>
                        <mxPoint x="2345.0000000000027" y="2726.5" as="targetPoint"/>
                    </mxGeometry>
                </mxCell>
                <mxCell id="180" value="" style="endArrow=block;dashed=1;endFill=0;endSize=12;html=1;strokeColor=#000000;strokeWidth=2;fontSize=20;fontColor=#000000;entryX=1;entryY=0.5;entryDx=0;entryDy=0;exitX=0;exitY=0.5;exitDx=0;exitDy=0;" parent="1" source="64" target="65" edge="1">
                    <mxGeometry width="160" relative="1" as="geometry">
                        <mxPoint x="1631.0000000000487" y="2041" as="sourcePoint"/>
                        <mxPoint x="1519.0000000000027" y="2072.5" as="targetPoint"/>
                        <Array as="points"/>
                    </mxGeometry>
                </mxCell>
                <mxCell id="181" value="" style="endArrow=block;dashed=1;endFill=0;endSize=12;html=1;strokeColor=#000000;strokeWidth=2;fontSize=20;fontColor=#000000;entryX=1;entryY=0;entryDx=0;entryDy=0;exitX=0;exitY=0.5;exitDx=0;exitDy=0;" parent="1" source="63" target="65" edge="1">
                    <mxGeometry width="160" relative="1" as="geometry">
                        <mxPoint x="2253.5000000000487" y="2257" as="sourcePoint"/>
                        <mxPoint x="2141.5000000000027" y="2288.5" as="targetPoint"/>
                    </mxGeometry>
                </mxCell>
                <mxCell id="182" value="" style="endArrow=block;dashed=1;endFill=0;endSize=12;html=1;strokeColor=#000000;strokeWidth=2;fontSize=20;fontColor=#000000;entryX=1;entryY=1;entryDx=0;entryDy=0;exitX=0;exitY=0;exitDx=0;exitDy=0;" parent="1" source="76" target="29" edge="1">
                    <mxGeometry width="160" relative="1" as="geometry">
                        <mxPoint x="2283.0000000000487" y="2700" as="sourcePoint"/>
                        <mxPoint x="2171.0000000000027" y="2731.5" as="targetPoint"/>
                        <Array as="points"/>
                    </mxGeometry>
                </mxCell>
                <mxCell id="183" value="" style="endArrow=block;dashed=1;endFill=0;endSize=12;html=1;strokeColor=#000000;strokeWidth=2;fontSize=20;fontColor=#000000;entryX=1;entryY=0.5;entryDx=0;entryDy=0;exitX=0;exitY=0.5;exitDx=0;exitDy=0;" parent="1" source="78" target="29" edge="1">
                    <mxGeometry width="160" relative="1" as="geometry">
                        <mxPoint x="2384.5000000000487" y="2745" as="sourcePoint"/>
                        <mxPoint x="2272.5000000000027" y="2776.5" as="targetPoint"/>
                    </mxGeometry>
                </mxCell>
                <mxCell id="186" value="" style="endArrow=block;dashed=1;endFill=0;endSize=12;html=1;strokeColor=#000000;strokeWidth=2;fontSize=20;fontColor=#000000;entryX=1;entryY=0.5;entryDx=0;entryDy=0;exitX=0;exitY=0.5;exitDx=0;exitDy=0;" parent="1" source="62" target="78" edge="1">
                    <mxGeometry width="160" relative="1" as="geometry">
                        <mxPoint x="2404.0000000000487" y="2441" as="sourcePoint"/>
                        <mxPoint x="2292.0000000000027" y="2472.5" as="targetPoint"/>
                    </mxGeometry>
                </mxCell>
                <mxCell id="188" value="" style="endArrow=none;html=1;strokeColor=#000000;strokeWidth=2;exitX=1;exitY=0.5;exitDx=0;exitDy=0;" parent="1" source="25" edge="1">
                    <mxGeometry width="50" height="50" relative="1" as="geometry">
                        <mxPoint x="2892.9999999999645" y="1725" as="sourcePoint"/>
                        <mxPoint x="2995" y="1725" as="targetPoint"/>
                        <Array as="points"/>
                    </mxGeometry>
                </mxCell>
                <mxCell id="191" value="" style="endArrow=block;dashed=1;endFill=0;endSize=12;html=1;strokeColor=#000000;strokeWidth=2;fontSize=20;fontColor=#000000;entryX=0;entryY=0.5;entryDx=0;entryDy=0;exitX=1;exitY=0.5;exitDx=0;exitDy=0;" parent="1" source="133" target="25" edge="1">
                    <mxGeometry width="160" relative="1" as="geometry">
                        <mxPoint x="3028.999999999989" y="1441" as="sourcePoint"/>
                        <mxPoint x="2885.0000000000127" y="1435" as="targetPoint"/>
                    </mxGeometry>
                </mxCell>
                <mxCell id="192" value="" style="endArrow=block;dashed=1;endFill=0;endSize=12;html=1;strokeColor=#000000;strokeWidth=2;fontSize=20;fontColor=#000000;entryX=0;entryY=0.5;entryDx=0;entryDy=0;exitX=1;exitY=0.5;exitDx=0;exitDy=0;" parent="1" source="138" target="26" edge="1">
                    <mxGeometry width="160" relative="1" as="geometry">
                        <mxPoint x="3038.999999999989" y="1451" as="sourcePoint"/>
                        <mxPoint x="2895.0000000000127" y="1445" as="targetPoint"/>
                    </mxGeometry>
                </mxCell>
                <mxCell id="194" value="" style="endArrow=classic;html=1;strokeColor=#000000;strokeWidth=2;" parent="1" edge="1">
                    <mxGeometry width="50" height="50" relative="1" as="geometry">
                        <mxPoint x="3065" y="2367" as="sourcePoint"/>
                        <mxPoint x="1651" y="2424" as="targetPoint"/>
                        <Array as="points">
                            <mxPoint x="3065" y="2819"/>
                            <mxPoint x="1655" y="2807"/>
                        </Array>
                    </mxGeometry>
                </mxCell>
                <mxCell id="196" value="&amp;lt;&amp;lt; Extend &amp;gt;&amp;gt;" style="text;html=1;strokeColor=none;fillColor=none;align=center;verticalAlign=middle;whiteSpace=wrap;rounded=0;strokeWidth=2;fontSize=20;fontColor=#000000;rotation=15;" parent="1" vertex="1">
                    <mxGeometry x="2018" y="2425" width="144" height="30" as="geometry"/>
                </mxCell>
                <mxCell id="197" value="&amp;lt;&amp;lt; Extend &amp;gt;&amp;gt;" style="text;html=1;strokeColor=none;fillColor=none;align=center;verticalAlign=middle;whiteSpace=wrap;rounded=0;strokeWidth=2;fontSize=20;fontColor=#000000;rotation=15;" parent="1" vertex="1">
                    <mxGeometry x="2115" y="2338" width="144" height="30" as="geometry"/>
                </mxCell>
                <mxCell id="198" value="&amp;lt;&amp;lt; Extend &amp;gt;&amp;gt;" style="text;html=1;strokeColor=none;fillColor=none;align=center;verticalAlign=middle;whiteSpace=wrap;rounded=0;strokeWidth=2;fontSize=20;fontColor=#000000;rotation=-15;" parent="1" vertex="1">
                    <mxGeometry x="2092" y="2274.5" width="144" height="30" as="geometry"/>
                </mxCell>
                <mxCell id="199" value="&amp;lt;&amp;lt; Extend &amp;gt;&amp;gt;" style="text;html=1;strokeColor=none;fillColor=none;align=center;verticalAlign=middle;whiteSpace=wrap;rounded=0;strokeWidth=2;fontSize=20;fontColor=#000000;rotation=-15;" parent="1" vertex="1">
                    <mxGeometry x="2101" y="2172" width="144" height="30" as="geometry"/>
                </mxCell>
                <mxCell id="200" value="&amp;lt;&amp;lt; Extend &amp;gt;&amp;gt;" style="text;html=1;strokeColor=none;fillColor=none;align=center;verticalAlign=middle;whiteSpace=wrap;rounded=0;strokeWidth=2;fontSize=20;fontColor=#000000;rotation=0;" parent="1" vertex="1">
                    <mxGeometry x="2096" y="2041" width="144" height="30" as="geometry"/>
                </mxCell>
                <mxCell id="201" value="&amp;lt;&amp;lt; Extend &amp;gt;&amp;gt;" style="text;html=1;strokeColor=none;fillColor=none;align=center;verticalAlign=middle;whiteSpace=wrap;rounded=0;strokeWidth=2;fontSize=20;fontColor=#000000;rotation=0;" parent="1" vertex="1">
                    <mxGeometry x="2106" y="1938" width="144" height="30" as="geometry"/>
                </mxCell>
                <mxCell id="205" value="&amp;lt;&amp;lt; Extend &amp;gt;&amp;gt;" style="text;html=1;strokeColor=none;fillColor=none;align=center;verticalAlign=middle;whiteSpace=wrap;rounded=0;strokeWidth=2;fontSize=20;fontColor=#000000;rotation=0;" parent="1" vertex="1">
                    <mxGeometry x="2586" y="1713" width="144" height="30" as="geometry"/>
                </mxCell>
                <mxCell id="206" value="&amp;lt;&amp;lt; Extend &amp;gt;&amp;gt;" style="text;html=1;strokeColor=none;fillColor=none;align=center;verticalAlign=middle;whiteSpace=wrap;rounded=0;strokeWidth=2;fontSize=20;fontColor=#000000;rotation=-5;" parent="1" vertex="1">
                    <mxGeometry x="2594" y="1592" width="144" height="30" as="geometry"/>
                </mxCell>
                <mxCell id="207" value="&amp;lt;&amp;lt; Extend &amp;gt;&amp;gt;" style="text;html=1;strokeColor=none;fillColor=none;align=center;verticalAlign=middle;whiteSpace=wrap;rounded=0;strokeWidth=2;fontSize=20;fontColor=#000000;rotation=5;" parent="1" vertex="1">
                    <mxGeometry x="2289" y="2444" width="144" height="30" as="geometry"/>
                </mxCell>
                <mxCell id="208" value="&amp;lt;&amp;lt; Extend &amp;gt;&amp;gt;" style="text;html=1;strokeColor=none;fillColor=none;align=center;verticalAlign=middle;whiteSpace=wrap;rounded=0;strokeWidth=2;fontSize=20;fontColor=#000000;rotation=30;" parent="1" vertex="1">
                    <mxGeometry x="2289" y="2528" width="144" height="30" as="geometry"/>
                </mxCell>
                <mxCell id="209" value="&amp;lt;&amp;lt; Extend &amp;gt;&amp;gt;" style="text;html=1;strokeColor=none;fillColor=none;align=center;verticalAlign=middle;whiteSpace=wrap;rounded=0;strokeWidth=2;fontSize=20;fontColor=#000000;rotation=30;" parent="1" vertex="1">
                    <mxGeometry x="1993" y="2509" width="144" height="30" as="geometry"/>
                </mxCell>
            </root>
        </mxGraphModel>
    </diagram>
</mxfile>